<?xml version="1.0" encoding="UTF-8"?>
<svg width="123px" height="30px" viewBox="0 0 123 30" version="1.1" xmlns="http://www.w3.org/2000/svg" xmlns:xlink="http://www.w3.org/1999/xlink">
    <!-- Generator: Sketch 49.1 (51147) - http://www.bohemiancoding.com/sketch -->
    <title>Group 7</title>
    <desc>Created with Sketch.</desc>
    <defs>
        <rect id="path-1" x="11.838543" y="5.5" width="3" height="5"></rect>
        <path d="M2.93942506,7.46996879 L3.00681773,7.46996879 C3.75318993,7.46996879 4.36832342,8.05549122 4.40511571,8.80095603 L4.50660225,10.8572197 L1.70660225,10.8572197 L1.60843782,8.86826677 C1.57215787,8.13318282 2.13865045,7.50786883 2.87373441,7.47158888 C2.89561465,7.47050899 2.91751819,7.46996879 2.93942506,7.46996879 Z" id="path-2"></path>
        <rect id="path-3" x="8.2265625" y="1" width="10" height="4" rx="2"></rect>
    </defs>
    <g id="Def" stroke="none" stroke-width="1" fill="none" fill-rule="evenodd">
        <g id="Desktop-HD-Copy-3" transform="translate(-109.000000, -50.000000)">
            <g id="Group-7" transform="translate(108.000000, 50.000000)">
                <path d="M44.3809133,17.9788948 L44.3809133,28.9724035 L42.3856501,28.9724035 L42.3856501,17.9788948 L32.8005625,1.23433359 L34.9914397,1.23433359 L43.4419659,15.9836317 L51.8924921,1.23433359 L53.9660009,1.23433359 L44.3809133,17.9788948 Z M57.3794661,28.9724035 L57.3794661,9.41100019 L59.4529749,9.41100019 L59.4529749,28.9724035 L57.3794661,28.9724035 Z M57.0273609,3.97293006 L57.0273609,1.23433359 L59.7659573,1.23433359 L59.7659573,3.97293006 L57.0273609,3.97293006 Z M80.6281943,28.9724035 L73.7425804,18.5266141 L68.6174927,24.1211755 L68.6174927,28.9724035 L66.6222296,28.9724035 L66.6222296,0.725737108 L68.6174927,0.725737108 L68.6174927,21.3043334 L79.6110014,9.41100019 L82.0757382,9.41100019 L75.1510014,16.9617019 L83.0146855,28.9724035 L80.6281943,28.9724035 Z M98.8300805,18.9178422 L91.8270981,19.3481931 C90.366506,19.4525211 89.2058744,19.8633064 88.3451683,20.5805615 C87.4844623,21.2978165 87.0541157,22.2563157 87.0541157,23.4560878 C87.0541157,24.8645159 87.5170643,25.9208211 88.4429753,26.6250351 C89.3688864,27.3292492 90.5360384,27.6813509 91.9444665,27.6813509 C93.1703206,27.6813509 94.2201054,27.4531368 95.0938525,26.9967018 C95.9675995,26.5402668 96.6783234,25.9469101 97.2260454,25.2166141 C97.7737675,24.486318 98.1780324,23.6582269 98.4388524,22.7323159 C98.6996724,21.8064048 98.8300805,20.8739872 98.8300805,19.9350352 L98.8300805,18.9178422 Z M102.85973,28.9724035 C102.624992,29.0245675 102.468502,29.0571695 102.390256,29.0702105 C102.31201,29.0832515 102.15552,29.0897719 101.920782,29.0897719 C101.320896,29.0897719 100.818825,28.9854455 100.414554,28.7767895 C100.010283,28.5681335 99.6907834,28.2877562 99.4560454,27.9356491 C99.2213074,27.5835421 99.0582973,27.1792772 98.9670103,26.7228421 C98.8757233,26.2664071 98.8300805,25.7773769 98.8300805,25.2557369 C98.5692605,25.9599509 98.1975975,26.5728688 97.7150805,27.0945088 C97.2325635,27.6161488 96.6783293,28.0530158 96.0523612,28.4051228 C95.4263932,28.7572298 94.7482713,29.0245663 94.0179753,29.2071404 C93.2876792,29.3897144 92.5443533,29.481 91.7879753,29.481 C90.8490232,29.481 89.9687689,29.3440715 89.1471858,29.0702105 C88.3256028,28.7963495 87.6083585,28.398605 86.9954315,27.8769649 C86.3825044,27.3553249 85.9065151,26.7228458 85.567449,25.9795088 C85.228383,25.2361718 85.0588525,24.3950398 85.0588525,23.4560878 C85.0588525,21.7085937 85.66525,20.3327887 86.8780631,19.3286317 C88.0908761,18.3244746 89.675334,17.7571996 91.6314841,17.6267896 L98.8300805,17.1181931 L98.8300805,15.2011756 C98.8300805,13.5840915 98.3410503,12.4365006 97.3629752,11.7583686 C96.3849002,11.0802365 95.1525441,10.7411756 93.66587,10.7411756 C92.1009499,10.7411756 90.7968694,11.0932774 89.7535893,11.7974914 C88.7103093,12.5017054 88.1365139,13.5840923 88.0321859,15.0446843 L86.0760455,15.0446843 C86.1542915,14.0535683 86.3955464,13.1798343 86.7998174,12.4234563 C87.2040885,11.6670783 87.7387615,11.0280788 88.4038525,10.5064388 C89.0689436,9.98479874 89.8448715,9.58705418 90.7316595,9.31319317 C91.6184476,9.03933215 92.596508,8.9024037 93.66587,8.9024037 C94.3179201,8.9024037 94.9830011,8.96108732 95.6611332,9.07845633 C96.3392652,9.19582534 96.9782646,9.39795782 97.5781507,9.68485983 C98.1780367,9.97176185 98.7127097,10.3434248 99.1821858,10.7998598 C99.6516618,11.2562948 100.016804,11.8235699 100.277624,12.5017019 C100.512362,13.1015879 100.655811,13.7145058 100.707975,14.3404738 C100.760139,14.9664419 100.786221,15.6054413 100.786221,16.2574914 L100.786221,25.1774913 C100.786221,25.8556233 100.870986,26.3772555 101.040519,26.7424035 C101.210052,27.1075516 101.633878,27.2901228 102.31201,27.2901228 C102.546748,27.2901228 102.72932,27.277082 102.85973,27.251 L102.85973,28.9724035 Z M121.374598,28.9724035 L121.374598,16.1792457 C121.374598,14.4578336 120.983374,13.1341919 120.200914,12.2082809 C119.418454,11.2823698 118.127414,10.8194212 116.327756,10.8194212 C115.127984,10.8194212 114.110801,11.0606761 113.276177,11.5431931 C112.441553,12.0257102 111.769952,12.6581892 111.261353,13.4406493 C110.752754,14.2231093 110.387611,15.1164045 110.165914,16.1205615 C109.944217,17.1247186 109.83337,18.1484218 109.83337,19.1917018 L109.83337,28.9724035 L107.87723,28.9724035 L107.87723,9.41100019 L109.598633,9.41100019 L109.83337,12.9711756 C110.09419,12.3452076 110.459333,11.7844529 110.928809,11.2888949 C111.398285,10.7933369 111.926437,10.3695107 112.513282,10.0174037 C113.100128,9.66529667 113.732607,9.39143976 114.410739,9.19582475 C115.088871,9.00020974 115.766993,8.9024037 116.445125,8.9024037 C118.714259,8.9024037 120.429125,9.54140315 121.589774,10.8194212 C122.750423,12.0974393 123.330739,13.8449072 123.330739,16.0618773 L123.330739,28.9724035 L121.374598,28.9724035 Z" id="Yikan" fill="#000000"></path>
                <g id="Group" transform="translate(1.726562, 7.000000)" fill="#FF4929">
                    <circle id="Oval-Copy" cx="11.1119805" cy="11.1152022" r="11.0929725"></circle>
                </g>
                <g id="Rectangle-5">
                    <use fill="#FF4929" fill-rule="evenodd" xlink:href="#path-1"></use>
                    <rect x="11.838543" y="5.5" width="3" height="5"></rect>
                </g>
                <g id="Rectangle-5-Copy" transform="translate(3.023014, 9.163594) rotate(-45.000000) translate(-3.023014, -9.163594) ">
                    <use fill="#FF4929" fill-rule="evenodd" xlink:href="#path-2"></use>
                    <path d="M2.93942506,7.46996879 L3.00681773,7.46996879 C3.75318993,7.46996879 4.36832342,8.05549122 4.40511571,8.80095603 L4.50660225,10.8572197 L1.70660225,10.8572197 L1.60843782,8.86826677 C1.57215787,8.13318282 2.13865045,7.50786883 2.87373441,7.47158888 C2.89561465,7.47050899 2.91751819,7.46996879 2.93942506,7.46996879 Z"></path>
                </g>
                <g id="Rectangle-4">
                    <use fill="#FF4929" fill-rule="evenodd" xlink:href="#path-3"></use>
                    <rect x="8.2265625" y="1" width="10" height="4" rx="2"></rect>
                </g>
                <path d="M14.6815498,16.5834217 C15.1548105,17.0052902 15.4528367,17.6195583 15.4528367,18.3034342 C15.4528367,19.5755858 14.4215541,20.6068684 13.1494025,20.6068684 C12.8379433,20.6068684 12.5409219,20.5450522 12.2699381,20.4330193 L7.24001805,22.4615387 L10.8508132,18.1528284 C10.8910292,17.5297129 11.1790109,16.9740764 11.6172553,16.5834217 L13.1494025,8 L14.6815498,16.5834217 Z" id="Combined-Shape" fill="#FFFFFF"></path>
            </g>
        </g>
    </g>
</svg>